<?xml version="1.0" encoding="UTF-8"?>
<svg xmlns="http://www.w3.org/2000/svg" id="Layer_2" viewBox="0 0 5165.2 1601">
  <defs>
    <style>.cls-1{fill:#264653;fill-rule:evenodd;}</style>
  </defs>
  <g id="Layer_1-2">
    <path id="Combined-Shape" class="cls-1" d="m1404.72,615.85c5.05,25.77-6.44,52.23-30.04,67.21-19.33,13.58-30.82,35.78-30.82,58.68v109.43c0,111.61-79.48,205.28-185.35,218.86-61.55,7.84-123.1-10.71-168.89-51.45-45.79-40.74-72.26-98.72-72.26-160.19v-207.55c0-36.48-23.59-67.21-57.28-73.65-21.5-4.27-43.62,1.39-60.16,15.06-17.15,14.28-26.47,34.3-26.47,55.8v306.79c0,61.55-26.47,119.44-72.26,160.19-39.35,34.3-90.19,52.93-141.73,52.93-8.62,0-17.93,0-27.16-1.39-105.95-13.58-185.35-107.95-185.35-218.86v-201.02c0-36.48-23.59-67.21-57.28-73.65-21.5-4.27-43.62,1.39-60.16,15.06-17.15,14.28-26.47,34.3-26.47,55.8v116.57c0,72.95-37.26,140.16-98.81,179.51-18.63,12.19-42.22,14.28-62.25,5.75-20.02-8.53-34.39-26.47-38.65-47.88l-2.18-10.01c-5.05-25.77,6.44-52.23,30.04-68.69,19.33-13.58,30.82-35.08,30.82-58.68v-109.52c0-111.61,79.48-205.28,185.35-218.86,61.55-7.84,123.1,10.71,168.89,51.45,45.79,40.74,72.26,98.72,72.26,160.19v207.37c0,35.78,23.59,67.21,57.28,73.65,21.5,4.27,43.62-1.39,60.16-15.06,17.15-14.28,26.47-34.3,26.47-55.8v-298c0-111.61,79.48-205.28,185.35-218.86,61.55-7.84,123.1,10.71,168.89,51.45,45.79,40.74,72.26,98.72,72.26,160.19v207.37c0,36.48,23.59,67.21,57.28,73.65,21.5,4.27,43.62-1.39,60.16-15.06,17.15-14.28,26.47-34.3,26.47-55.8v-116.4c0-72.26,36.48-138.77,96.63-178.12,19.33-12.19,42.92-14.28,63.73-5.75,20.72,8.62,35.78,27.16,40.05,49.36l1.48,7.92Zm-130.94,621.51c36.48,27.95,41.53,80.88,16.45,113.79-15.76,16.45-32.21,32.91-49.36,47.97l-.7.7c-16.45,14.28-33.6,28.64-51.54,41.53-2.87,2.18-6.44,5.05-10.01,7.14-15.06,10.71-30.04,20.72-45.79,30.82-4.27,2.87-9.32,5.05-13.58,7.84-15.06,9.32-30.04,17.93-45.79,25.77-9.32,4.27-18.63,9.32-28.64,13.58-12.19,5.75-24.38,10.71-36.48,15.76-10.01,4.27-20.72,8.62-31.52,12.19-7.84,2.87-15.76,5.75-23.59,7.84-12.19,4.27-24.38,7.14-36.48,10.71-5.75,2.18-12.19,3.57-17.93,5.05-17.93,4.27-35.78,8.62-54.41,11.49-5.05.7-9.32,1.39-14.28,2.18-15.06,2.18-30.73,4.27-45.79,5.75-5.75.7-10.71.7-16.45,1.39-19.33,1.39-39.35,2.18-58.68,2.18h-1.39c-20.02,0-39.35-.7-58.68-2.18-5.75-.7-10.71-.7-16.45-1.39-15.76-1.39-30.73-3.57-45.79-5.75-5.05-.7-10.01-1.39-14.28-2.18-18.63-3.57-37.17-7.14-55.11-11.49-5.75-1.39-12.19-3.57-17.93-5.05-12.19-3.57-24.38-7.14-36.48-10.71-7.84-2.87-15.76-5.05-23.59-7.84-10.71-3.57-20.72-7.84-31.52-12.19-12.19-5.05-24.38-10.01-36.48-15.76-9.32-4.27-19.33-8.62-28.64-13.58-15.76-7.84-30.73-16.45-45.79-25.77-4.27-2.87-9.32-5.05-13.58-7.84-15.76-9.32-30.73-20.02-45.79-30.82-2.87-2.18-6.44-4.27-10.01-7.14-17.93-12.88-35.08-27.16-51.54-41.53l-.7-.7c-17.15-15.06-33.6-31.52-49.36-47.97-31.52-32.91-26.47-85.93,10.01-113.79,30.73-23.59,75.13-20.72,102.38,7.84,2.87,2.87,6.44,5.75,9.32,9.32,1.39,1.39,3.57,3.57,5.05,5.05,45.1,45.1,95.94,82.27,151.05,111.7h.7c28.64,15.06,59.37,28.64,90.89,39.35,2.87,1.39,5.05,2.18,7.84,2.87,14.28,5.05,28.64,9.32,43.62,12.88,2.87.7,5.75,1.39,8.62,2.18,12.88,2.87,26.47,5.75,39.35,7.84,2.87,0,5.75.7,8.62,1.39,14.28,2.87,29.34,4.27,44.4,5.75,3.57,0,7.14.7,10.71.7,15.06,1.39,30.82,2.18,46.49,2.18s30.82-.7,46.49-2.18c3.57,0,7.14-.7,10.71-.7,15.06-1.39,29.34-3.57,44.4-5.75,2.87,0,5.75-.7,8.62-1.39,13.58-2.18,26.47-5.05,39.35-7.84,2.87-.7,5.75-1.39,8.62-2.18,14.28-3.57,29.34-7.84,43.62-12.88,2.87-1.39,5.05-2.18,7.84-2.87,30.73-10.71,61.55-23.59,90.89-39.35h.7c55.11-29.34,105.95-66.6,151.05-111.7,1.39-1.39,3.57-3.57,5.05-5.05,2.87-2.87,6.44-5.75,9.32-9.32,26.2-28.56,70.52-31.43,102.03-7.84ZM131.41,364.16c-35.78-27.95-40.83-79.4-12.88-112.31,8.62-9.32,17.15-17.85,26.47-26.47,7.14-7.14,14.28-14.28,22.2-21.5,6.44-5.75,13.58-10.71,20.02-16.45,10.71-8.62,21.5-17.15,32.21-25.77,7.14-5.75,15.06-10.71,22.9-16.45,10.71-7.14,21.5-15.06,32.91-22.2,7.84-5.05,15.06-9.32,22.9-13.58,12.19-7.14,24.38-14.28,36.48-20.72,13.58-7.14,27.16-13.58,40.83-20.02,6.44-2.87,12.19-5.05,18.63-7.84,14.28-6.44,27.95-11.4,42.22-16.45,5.75-2.18,12.19-4.27,18.63-6.44,13.58-4.27,27.16-8.62,41.53-12.19,4.27-1.39,9.32-2.18,13.58-3.57,18.63-4.27,37.17-8.62,56.5-11.4,3.57-.7,7.84-.7,11.49-1.39,15.76-2.26,31.52-4.35,47.97-5.83,5.05-.7,10.01-.7,15.06-1.39,20.02-1.39,39.35-2.18,59.37-2.18s40.05.7,59.37,2.18c5.05.7,10.01.7,15.06,1.39,15.76,1.39,32.21,3.57,47.97,5.75,3.57.7,7.84.7,11.49,1.39,18.63,2.87,37.96,7.14,56.5,11.4,5.05,1.39,9.32,2.18,13.58,3.57,13.58,3.57,27.95,7.84,41.53,12.19,5.75,2.18,12.19,4.27,18.63,6.44,14.28,5.05,28.64,10.71,42.22,16.45,6.44,2.87,12.19,5.05,18.63,7.84,13.58,6.44,27.16,12.88,40.83,20.02,12.19,6.44,24.38,13.58,36.48,20.72,7.84,5.05,15.76,8.62,22.9,13.58,11.49,7.14,22.2,14.28,32.91,22.2,7.84,5.75,15.06,10.71,22.9,16.45,11.49,7.84,21.5,17.15,32.21,25.77,6.44,5.75,13.58,10.71,20.02,16.45,7.84,7.14,15.06,14.28,22.2,21.5,8.62,8.62,17.93,17.15,26.47,26.47,30.04,33.6,25.07,85.14-10.71,112.31-30.82,23.59-75.13,20.72-102.38-7.84-72.26-76.52-161.06-133.11-259.09-166.02-.7-.7-2.18-.7-3.57-1.39-15.06-5.05-30.82-9.32-46.49-13.58-1.39-.7-3.57-.7-5.05-1.39-14.28-2.87-29.34-6.44-43.62-8.62-2.18-.7-4.27-1.39-6.44-1.39-15.06-2.87-30.04-4.27-45.79-5.75-3.57,0-6.44-.7-10.01-.7-15.76-1.39-31.52-2.18-47.27-2.18s-31.52.7-47.27,2.18c-3.57,0-6.44.7-10.01.7-15.06,1.39-30.82,3.57-45.79,5.75-2.18.7-4.27.7-6.44,1.39-15.06,2.18-29.34,5.05-43.62,8.62-1.39.7-3.57.7-5.05,1.39-15.76,3.57-30.82,8.62-46.49,13.58-.7.7-2.18.7-3.57,1.39-98.03,32.91-186.83,89.41-259.78,166.02-26.55,28.64-70.95,31.52-102.47,7.92Zm1960.81,131.81c28.64,0,43.62,15.06,43.62,42.92v514.34c0,28.64-14.97,43.62-43.62,43.62h-5.75c-29.34,0-43.62-14.28-43.62-43.62v-514.34c0-28.64,14.28-42.92,43.62-42.92h5.75Zm357.29,163.5c105.95,0,213.38,68.69,214.08,222.43,0,152.35-107.43,221.04-214.08,221.04s-214.08-68.69-214.08-221.04c0-153.83,107.34-222.43,214.08-222.43Zm0,81.49c-75.22,0-119.53,52.23-118.83,140.16,0,88.02,44.4,140.86,118.83,140.86s118.83-52.23,118.83-140.86-44.4-140.16-118.83-140.16Zm825.75-73.74c23.59,0,39.35,12.19,40.05,30.04,0,4.27-.7,8.62-1.39,13.58-7.84,27.86-14.28,54.41-21.5,80.88-22.2,85.84-45.79,175.25-76.61,256.13-8.62,23.59-24.38,47.97-67.99,47.97h-7.14c-40.05,0-54.41-20.02-63.03-49.36-22.9-76.52-42.22-144.52-58.68-228.96-17.15,88.02-35.08,156.7-56.59,228.96-9.32,30.04-22.9,49.36-63.03,49.36h-7.14c-43.7,0-58.68-24.29-67.99-47.97-32.91-86.54-57.98-180.3-82.36-271.88-5.75-20.72-11.49-42.22-17.15-63.64-1.39-6.44-2.18-10.71-2.18-15.06,0-18.63,15.76-30.73,39.35-30.73h12.88c22.2,0,35.78,11.4,41.53,35.08l7.84,31.52c22.9,92.98,42.92,173.86,70.17,261.87,7.84-32.21,16.45-63.64,24.38-95.15,16.45-63.64,33.6-130.24,49.36-197.45,5.75-22.9,21.5-35.08,44.4-35.08h12.19c23.59,0,39.35,12.19,44.4,35.08,15.06,62.94,31.52,124.49,47.27,184.56,9.32,35.78,19.33,72.26,28.64,108.74,23.59-77.22,41.53-150.26,60.16-227.48,5.05-21.5,10.01-42.92,15.76-65.82,5.75-23.59,19.33-35.08,41.53-35.08h12.88v-.09Zm186.65-.7c27.95,0,43.7,14.97,43.7,42.92v343.27c0,27.86-15.76,43.62-43.7,43.62h-5.05c-27.95,0-43.7-15.76-43.7-43.62v-343.27c0-27.86,15.76-42.92,43.7-42.92h5.05Zm-3.05-161.32c31.43,0,57.81,26.47,57.11,58.68,0,31.52-25.68,57.28-57.11,57.28s-57.11-25.77-57.11-57.28,25.68-58.68,57.11-58.68Zm388.11,154.27c48.67,0,163.15,17.15,163.93,177.34v215.21c0,28.64-15.06,43.62-43.62,43.62h-6.44c-27.95,0-42.92-14.97-42.92-43.62v-212.42c0-69.39-25.07-98.64-85.14-98.64s-98.81,51.45-98.81,131.54v180.21c0,28.64-15.06,43.62-44.4,43.62h-5.75c-28.64,0-43.62-14.97-43.62-43.62v-342.49c0-27.86,15.76-43.62,43.62-43.62h5.75c28.64,0,43.62,14.97,43.62,43.62v1.39c26.47-29.34,66.6-52.15,113.78-52.15Zm462.19,356.85c125.97,0,187.52,39.35,186.74,119.53,0,80.88-83.05,138.86-206.85,143.12h-20.02c-100.2,0-181.08-47.19-181.08-105.86,0-29.34,16.45-50.06,42.22-53.63l8.62-1.39,4.27,7.84c5.75,12.19,15.06,22.9,27.16,32.91,27.16,22.2,67.3,35.08,109.52,35.08h5.75c78,0,118.83-26.47,118.83-52.93,0-19.33-12.88-41.53-113.09-41.53-88.02,0-173.94-6.44-173.94-81.57,0-37.96,22.2-58.68,46.49-72.26-39.35-29.34-57.98-70.08-57.98-126.67,0-110.22,89.5-159.58,177.51-159.58,50.06,0,90.89,24.29,111.61,42.92,15.06-15.76,17.93-42.22,17.93-57.98v-12.19h12.19c34.39,0,69.39,22.2,69.39,60.07,0,27.95-20.02,51.54-55.11,65.82,7.84,17.15,12.88,42.92,12.88,65.12,0,94.46-67.3,155.31-171.77,155.31-5.75,0-12.19,0-18.63-.7-6.44,0-12.88-.7-18.63-.7-20.72,0-35.08,12.88-35.08,20.72,0,16.45,27.95,18.63,40.05,18.63h61.03v-.09Zm-28.64-279.02c-25.77,0-85.14,7.84-85.14,82.97s59.37,82.97,85.14,82.97,84.45-7.84,84.45-82.97-58.68-82.97-84.45-82.97Zm354.41-241.33c36.48,0,43.62,23.59,43.62,42.92v514.34c0,28.64-14.97,43.62-43.62,43.62h-5.75c-29.34,0-43.62-14.28-43.62-43.62v-514.34c0-28.64,14.28-42.92,43.62-42.92h5.75Zm490.92,171.07c22.9,0,37.96,12.19,39.35,30.04,0,5.05-1.39,10.71-3.57,16.45-64.42,199.62-132.42,374.87-207.55,534.45-7.14,14.28-16.45,33.6-46.49,33.6h-20.72c-20.02,0-32.21-12.19-32.21-31.52,0-6.44,2.18-12.88,6.44-20.72,14.28-28.64,27.16-52.93,37.96-73.65,12.19-23.59,22.9-43.62,31.52-63.64-17.93-7.14-25.07-22.2-32.21-37.17l-2.87-5.75c-55.8-110.91-103.08-258.3-125.97-336.31-1.39-4.27-2.87-10.01-2.87-15.06,0-18.63,15.06-30.73,37.96-30.73h15.76c23.59,0,39.35,12.19,44.4,35.08,28.64,113.79,66.6,223.22,101.6,299.04,40.05-102.29,78-211.03,103.08-299.74,6.44-22.9,20.72-34.3,43.62-34.3h12.8v-.09Zm-3183.89-172.2c25.77,0,47.88,21.5,47.88,47.97v6.44c0,26.47-21.42,47.97-47.88,47.97h-233.14v140.95h194.49c26.47,0,47.88,21.5,47.88,47.97v6.44c0,26.47-21.42,47.97-47.88,47.97h-194.49v207.46c0,26.47-21.42,47.97-47.88,47.97h-6.44c-26.47,0-47.88-21.5-47.88-47.97v-505.2c0-26.47,21.42-47.97,47.88-47.97h287.47Z"></path>
  </g>
</svg>
